<svg xmlns="http://www.w3.org/2000/svg" xml:space="preserve" width="1.70666in" height="1.70666in" version="1.1" style="shape-rendering:geometricPrecision; text-rendering:geometricPrecision; image-rendering:optimizeQuality; fill-rule:evenodd; clip-rule:evenodd" viewBox="0 0 1707 1707" xmlns:xlink="http://www.w3.org/1999/xlink">
 <defs>
  <style type="text/css">
   
    .fil0 {fill:#E04F5F}
    .fil1 {fill:#FAFAFC}
   
  </style>
 </defs>
 <g id="Layer_x0020_1">
  <metadata id="CorelCorpID_0Corel-Layer"></metadata>
  <path class="fil0" d="M853 1707c-228,0 -443,-89 -604,-250 -160,-160 -249,-375 -249,-604 0,-227 89,-441 249,-602 161,-162 376,-251 604,-251 229,0 443,89 604,251 161,161 250,375 250,602 0,229 -89,444 -250,604 -160,161 -375,250 -604,250z" id="id_101" style="fill: rgb(24, 24, 24);"></path>
  <path class="fil1" d="M853 1607c-201,0 -390,-79 -532,-221 -142,-142 -221,-331 -221,-533 0,-201 78,-390 221,-532 142,-142 331,-221 532,-221 202,0 391,78 533,221 142,142 221,331 221,532 0,202 -79,391 -221,533 -142,142 -331,221 -533,221z" id="id_102" style="fill: rgb(23, 23, 23);"></path>
  <path class="fil0" d="M853 1140c-6,0 -12,-2 -16,-7l-437 -437c-9,-9 -9,-24 0,-33l90 -90c9,-9 24,-9 33,0l331 331 330 -331c9,-9 24,-9 33,0l90 90c9,9 9,24 0,33l-437 437c-5,5 -11,7 -17,7z" id="id_103" style="fill: rgb(242, 233, 233);"></path>
 </g>
</svg>