<svg version="1.1" id="Livello_1" xmlns="http://www.w3.org/2000/svg" xmlns:xlink="http://www.w3.org/1999/xlink" x="0px" y="0px" width="100px" height="100px" viewBox="0 0 100 100" enable-background="new 0 0 100 100" xml:space="preserve">
<rect fill="none" width="100" height="100" id="id_101"></rect>
<path d="M87.685,7.848c-4.113-2.479-14.178,6.682-22.479,20.46c-2.895,4.805-5.192,9.535-6.784,13.766
	C55.772,40.832,52.941,40.13,50,40.13c-2.942,0-5.772,0.702-8.422,1.943c-1.591-4.23-3.89-8.961-6.784-13.766
	C26.493,14.529,16.429,5.369,12.315,7.848c-4.113,2.478-0.719,15.657,7.583,29.435c3.433,5.697,7.167,10.605,10.657,14.227
	c-4.596,6.229-7.416,14.122-7.416,21.307c0,14.835,12.025,19.741,26.86,19.741s26.86-4.906,26.86-19.741
	c0-7.185-2.821-15.077-7.416-21.307c3.49-3.621,7.225-8.529,10.656-14.227C88.402,23.505,91.798,10.325,87.685,7.848z" id="id_102" style="fill: rgb(255, 255, 255);"></path>
</svg>